<mxfile host="app.diagrams.net" modified="2023-06-06T18:32:12.705Z" agent="Mozilla/5.0 (Windows NT 10.0; Win64; x64; rv:109.0) Gecko/20100101 Firefox/113.0" version="21.3.3" etag="brFh361dx7ZOBxvOvYSe" type="github">
  <diagram name="Page-1" id="yjh-3RlpHLVLqLs_Eli1">
    <mxGraphModel>
      <root>
        <mxCell id="0" />
        <mxCell id="1" parent="0" />
      </root>
    </mxGraphModel>
  </diagram>
</mxfile>
